<?xml version="1.0" encoding="UTF-8"?>
<!DOCTYPE svg PUBLIC "-//W3C//DTD SVG 1.1//EN" "http://www.w3.org/Graphics/SVG/1.1/DTD/svg11.dtd">
<svg xmlns="http://www.w3.org/2000/svg" version="1.1" width="178px" height="178px" style="shape-rendering:geometricPrecision; text-rendering:geometricPrecision; image-rendering:optimizeQuality; fill-rule:evenodd; clip-rule:evenodd" xmlns:xlink="http://www.w3.org/1999/xlink">
<g><path style="opacity:0.994" fill="#ebe0d8" d="M 8.5,-0.5 C 61.5,-0.5 114.5,-0.5 167.5,-0.5C 171.479,1.31481 174.312,4.31481 176,8.5C 176.667,61.5 176.667,114.5 176,167.5C 174.5,171.667 171.667,174.5 167.5,176C 129.501,176.5 91.5015,176.667 53.5,176.5C 53.2148,174.712 53.5481,173.045 54.5,171.5C 55.6086,172.59 56.6086,172.59 57.5,171.5C 57.4959,166.794 56.8292,162.127 55.5,157.5C 52.5,156.833 49.5,156.167 46.5,155.5C 46.5,157.167 46.5,158.833 46.5,160.5C 43.8806,160.768 41.3806,160.435 39,159.5C 38.6667,162.5 38.3333,165.5 38,168.5C 36.3333,168.167 34.6667,167.833 33,167.5C 32.3658,170.555 32.5325,173.555 33.5,176.5C 25.16,176.666 16.8267,176.5 8.5,176C 4.31481,174.312 1.31481,171.479 -0.5,167.5C -0.5,114.5 -0.5,61.5 -0.5,8.5C 1.5,4.5 4.5,1.5 8.5,-0.5 Z"/></g>
<g><path style="opacity:1" fill="#daaa81" d="M 47.5,40.5 C 49.1667,40.5 50.8333,40.5 52.5,40.5C 53.347,41.9663 54.6803,42.7996 56.5,43C 55.3044,43.6543 55.3044,44.1543 56.5,44.5C 58.1283,44.4214 59.7949,44.0881 61.5,43.5C 62.5,43.5 63.5,43.5 64.5,43.5C 64.6633,45.8568 64.4966,48.1902 64,50.5C 62.7949,49.9288 61.6283,49.2621 60.5,48.5C 60.8457,47.3044 61.3457,47.3044 62,48.5C 62.4828,47.552 62.6495,46.552 62.5,45.5C 59.224,45.144 56.5573,46.144 54.5,48.5C 53.5,48.5 52.5,48.5 51.5,48.5C 49.0336,47.3659 46.367,47.1993 43.5,48C 42.944,48.3826 42.6107,48.8826 42.5,49.5C 40.8762,49.6399 39.7096,48.9733 39,47.5C 36.9551,49.0432 35.4551,48.7099 34.5,46.5C 35.1667,45.1667 36.1667,44.1667 37.5,43.5C 39.674,43.0798 41.674,43.0798 43.5,43.5C 45.483,43.1852 46.8163,42.1852 47.5,40.5 Z"/></g>
<g><path style="opacity:1" fill="#ddb595" d="M 52.5,40.5 C 55.9164,40.5275 58.9164,41.5275 61.5,43.5C 59.7949,44.0881 58.1283,44.4214 56.5,44.5C 55.3044,44.1543 55.3044,43.6543 56.5,43C 54.6803,42.7996 53.347,41.9663 52.5,40.5 Z"/></g>
<g><path style="opacity:1" fill="#dcb797" d="M 47.5,40.5 C 46.8163,42.1852 45.483,43.1852 43.5,43.5C 41.674,43.0798 39.674,43.0798 37.5,43.5C 40.2882,41.0237 43.6215,40.0237 47.5,40.5 Z"/></g>
<g><path style="opacity:1" fill="#d3ba9d" d="M 51.5,48.5 C 48.9407,48.1984 46.6074,48.5318 44.5,49.5C 43.8333,49.5 43.1667,49.5 42.5,49.5C 42.6107,48.8826 42.944,48.3826 43.5,48C 46.367,47.1993 49.0336,47.3659 51.5,48.5 Z"/></g>
<g><path style="opacity:1" fill="#83b3a8" d="M 124.5,48.5 C 124.833,48.5 125.167,48.5 125.5,48.5C 126.09,49.766 126.59,51.0993 127,52.5C 127.333,52.1667 127.667,51.8333 128,51.5C 128.66,54.678 129.493,57.678 130.5,60.5C 131.015,65.4797 130.348,70.1464 128.5,74.5C 126.05,74.298 123.717,74.6314 121.5,75.5C 115.858,76.3536 110.191,77.0203 104.5,77.5C 103.85,77.1961 103.183,76.8627 102.5,76.5C 99.9795,77.7853 97.3128,78.4519 94.5,78.5C 94.5,78.8333 94.5,79.1667 94.5,79.5C 94.1667,79.5 93.8333,79.5 93.5,79.5C 91.8561,79.7135 90.3561,79.3802 89,78.5C 84.5855,79.3029 80.0855,79.8029 75.5,80C 73.1192,80.2233 71.4525,81.39 70.5,83.5C 67.9039,84.2653 65.2372,84.5987 62.5,84.5C 58.9217,85.447 55.4217,85.7803 52,85.5C 51.5756,81.81 50.7423,81.6433 49.5,85C 47.3885,85.8447 45.3885,86.678 43.5,87.5C 42.8333,87.5 42.1667,87.5 41.5,87.5C 40.5,87.5 39.5,87.5 38.5,87.5C 38.5,85.8333 38.5,84.1667 38.5,82.5C 41.1667,78.1667 41.1667,73.8333 38.5,69.5C 38.5,66.8333 38.5,64.1667 38.5,61.5C 41.1566,59.764 42.8232,57.264 43.5,54C 42.8333,53.6667 42.1667,53.3333 41.5,53C 42.5634,51.8118 43.8967,51.3118 45.5,51.5C 44.5615,53.9103 44.5615,56.2436 45.5,58.5C 44.7109,58.7828 44.0442,59.2828 43.5,60C 44.4239,60.85 44.4239,61.85 43.5,63C 43.8964,64.8974 44.8964,66.3974 46.5,67.5C 51.83,70.0048 57.4967,71.0048 63.5,70.5C 63.8333,70.5 64.1667,70.5 64.5,70.5C 63.3915,71.29 62.0581,71.79 60.5,72C 64.0863,73.1076 67.753,73.6076 71.5,73.5C 72.7093,69.3294 72.7093,65.1627 71.5,61C 71.6667,60.5 71.8333,60 72,59.5C 73.0113,60.3366 74.1779,60.67 75.5,60.5C 73.9835,64.123 74.4835,67.4563 77,70.5C 76.5182,67.24 76.5182,63.9066 77,60.5C 77.5,60 78,59.5 78.5,59C 79.4223,59.4161 80.589,59.9161 82,60.5C 85,59.1667 88,59.1667 91,60.5C 92.8122,60.5066 94.3122,59.84 95.5,58.5C 97.8931,59.5176 99.8931,58.8509 101.5,56.5C 101.137,55.8165 100.804,55.1499 100.5,54.5C 104.063,53.7342 107.563,52.7342 111,51.5C 112.226,51.6448 113.393,51.9781 114.5,52.5C 115.696,52.1543 115.696,51.6543 114.5,51C 116.5,50.6667 118.5,50.3333 120.5,50C 119.5,49.6667 118.5,49.3333 117.5,49C 119.81,48.5034 122.143,48.3367 124.5,48.5 Z"/></g>
<g><path style="opacity:1" fill="#dbb492" d="M 34.5,46.5 C 35.4551,48.7099 36.9551,49.0432 39,47.5C 39.7096,48.9733 40.8762,49.6399 42.5,49.5C 40.3963,51.3718 39.063,53.7052 38.5,56.5C 38.1667,56.5 37.8333,56.5 37.5,56.5C 37.7434,52.4739 36.0768,51.1406 32.5,52.5C 33.4279,53.7678 33.5946,55.1011 33,56.5C 32.6667,55.8333 32.3333,55.1667 32,54.5C 29.9477,59.5558 30.1144,64.3891 32.5,69C 31.4456,72.9647 31.4456,77.1314 32.5,81.5C 32.3333,82.5 32.1667,83.5 32,84.5C 31.7645,82.8807 30.9311,81.8807 29.5,81.5C 29.5,75.5 29.5,69.5 29.5,63.5C 29.0227,58.258 29.8561,53.258 32,48.5C 32.7083,47.6195 33.5416,46.9528 34.5,46.5 Z"/></g>
<g><path style="opacity:1" fill="#dbb592" d="M 138.5,51.5 C 138.5,52.8333 138.5,54.1667 138.5,55.5C 137.732,54.7375 137.232,53.7375 137,52.5C 135.846,55.0157 134.346,57.6824 132.5,60.5C 132.167,60.5 131.833,60.5 131.5,60.5C 131.802,57.9407 131.468,55.6074 130.5,53.5C 129.89,51.5659 128.89,49.8993 127.5,48.5C 127.5,48.1667 127.5,47.8333 127.5,47.5C 130.419,48.913 132.919,50.913 135,53.5C 135.638,52.3914 136.138,51.2247 136.5,50C 135.293,48.6998 134.626,47.1998 134.5,45.5C 130.5,46.1667 128.833,44.5 129.5,40.5C 122.497,38.8753 115.831,39.7086 109.5,43C 110.047,43.9246 110.713,44.7579 111.5,45.5C 115.76,44.7867 120.093,44.4534 124.5,44.5C 125.713,44.7472 126.38,45.4138 126.5,46.5C 122.818,46.3347 119.152,46.5014 115.5,47C 114.944,47.3826 114.611,47.8826 114.5,48.5C 108.237,49.7928 102.57,52.1261 97.5,55.5C 95.4352,55.5172 93.4352,55.8505 91.5,56.5C 88.2356,57.3242 84.9023,57.6576 81.5,57.5C 78.1667,56.8333 74.8333,56.1667 71.5,55.5C 65.7192,53.4429 60.0526,51.1096 54.5,48.5C 56.5573,46.144 59.224,45.144 62.5,45.5C 62.6495,46.552 62.4828,47.552 62,48.5C 61.3457,47.3044 60.8457,47.3044 60.5,48.5C 61.6283,49.2621 62.7949,49.9288 64,50.5C 64.4966,48.1902 64.6633,45.8568 64.5,43.5C 71.1845,45.8809 78.0179,47.8809 85,49.5C 90.623,48.2195 96.123,46.5529 101.5,44.5C 98.7634,46.6667 96.0967,49 93.5,51.5C 94.6888,52.4287 96.0222,52.762 97.5,52.5C 97.281,51.325 97.6143,50.325 98.5,49.5C 98.8333,50.1667 99.1667,50.8333 99.5,51.5C 102.404,49.0464 105.738,47.713 109.5,47.5C 109.67,46.1779 109.337,45.0113 108.5,44C 107.041,44.3554 105.707,44.1888 104.5,43.5C 111.465,39.0143 119.132,37.5143 127.5,39C 133.829,40.8291 137.496,44.9958 138.5,51.5 Z"/></g>
<g><path style="opacity:1" fill="#d9a67b" d="M 89.5,49.5 C 90.339,50.6412 91.0057,51.9745 91.5,53.5C 90.8333,53.8333 90.1667,54.1667 89.5,54.5C 87.853,53.7224 86.5196,52.5557 85.5,51C 87.0581,50.79 88.3915,50.29 89.5,49.5 Z"/></g>
<g><path style="opacity:1" fill="#dbaa7e" d="M 65.5,47.5 C 72.0488,49.0142 78.0488,50.3475 83.5,51.5C 82.9017,52.7946 82.4017,54.1279 82,55.5C 80.258,52.6486 77.9247,51.9819 75,53.5C 72.1983,52.6702 69.365,51.8368 66.5,51C 65.6634,49.9887 65.33,48.8221 65.5,47.5 Z"/></g>
<g><path style="opacity:1" fill="#bbbca7" d="M 126.5,46.5 C 126.5,47.1667 126.833,47.5 127.5,47.5C 127.5,47.8333 127.5,48.1667 127.5,48.5C 126.833,48.5 126.167,48.5 125.5,48.5C 125.167,48.5 124.833,48.5 124.5,48.5C 121.302,47.3 117.969,47.3 114.5,48.5C 114.611,47.8826 114.944,47.3826 115.5,47C 119.152,46.5014 122.818,46.3347 126.5,46.5 Z"/></g>
<g><path style="opacity:1" fill="#dbaa80" d="M 104.5,43.5 C 105.707,44.1888 107.041,44.3554 108.5,44C 109.337,45.0113 109.67,46.1779 109.5,47.5C 105.738,47.713 102.404,49.0464 99.5,51.5C 99.1667,50.8333 98.8333,50.1667 98.5,49.5C 97.6143,50.325 97.281,51.325 97.5,52.5C 96.0222,52.762 94.6888,52.4287 93.5,51.5C 96.0967,49 98.7634,46.6667 101.5,44.5C 102.209,43.596 103.209,43.2627 104.5,43.5 Z"/></g>
<g><path style="opacity:1" fill="#dba97e" d="M 127.5,47.5 C 126.833,47.5 126.5,47.1667 126.5,46.5C 126.38,45.4138 125.713,44.7472 124.5,44.5C 120.093,44.4534 115.76,44.7867 111.5,45.5C 110.713,44.7579 110.047,43.9246 109.5,43C 115.831,39.7086 122.497,38.8753 129.5,40.5C 128.833,44.5 130.5,46.1667 134.5,45.5C 134.626,47.1998 135.293,48.6998 136.5,50C 136.138,51.2247 135.638,52.3914 135,53.5C 132.919,50.913 130.419,48.913 127.5,47.5 Z"/></g>
<g><path style="opacity:1" fill="#a2bcae" d="M 124.5,48.5 C 122.143,48.3367 119.81,48.5034 117.5,49C 118.5,49.3333 119.5,49.6667 120.5,50C 118.5,50.3333 116.5,50.6667 114.5,51C 115.696,51.6543 115.696,52.1543 114.5,52.5C 113.393,51.9781 112.226,51.6448 111,51.5C 107.563,52.7342 104.063,53.7342 100.5,54.5C 99.609,55.1098 98.609,55.4431 97.5,55.5C 102.57,52.1261 108.237,49.7928 114.5,48.5C 117.969,47.3 121.302,47.3 124.5,48.5 Z"/></g>
<g><path style="opacity:1" fill="#a2bcaf" d="M 125.5,48.5 C 126.167,48.5 126.833,48.5 127.5,48.5C 128.89,49.8993 129.89,51.5659 130.5,53.5C 130.5,55.8333 130.5,58.1667 130.5,60.5C 129.493,57.678 128.66,54.678 128,51.5C 127.667,51.8333 127.333,52.1667 127,52.5C 126.59,51.0993 126.09,49.766 125.5,48.5 Z"/></g>
<g><path style="opacity:1" fill="#96bbaf" d="M 42.5,49.5 C 43.1667,49.5 43.8333,49.5 44.5,49.5C 50.9231,49.2452 56.5898,50.9119 61.5,54.5C 61.0825,55.2216 60.4158,55.7216 59.5,56C 62.1667,56.6667 62.1667,57.3333 59.5,58C 60.7375,58.2321 61.7375,58.7321 62.5,59.5C 58.0696,58.976 53.7362,57.976 49.5,56.5C 47.9271,56.7517 46.5938,57.4183 45.5,58.5C 44.5615,56.2436 44.5615,53.9103 45.5,51.5C 43.8967,51.3118 42.5634,51.8118 41.5,53C 42.1667,53.3333 42.8333,53.6667 43.5,54C 42.8232,57.264 41.1566,59.764 38.5,61.5C 38.5,59.8333 38.5,58.1667 38.5,56.5C 39.063,53.7052 40.3963,51.3718 42.5,49.5 Z"/></g>
<g><path style="opacity:1" fill="#a6bdad" d="M 44.5,49.5 C 46.6074,48.5318 48.9407,48.1984 51.5,48.5C 52.5,48.5 53.5,48.5 54.5,48.5C 60.0526,51.1096 65.7192,53.4429 71.5,55.5C 69.1806,56.167 66.8473,56.3336 64.5,56C 65.1667,55.6667 65.8333,55.3333 66.5,55C 64.8659,54.5065 63.1992,54.3398 61.5,54.5C 56.5898,50.9119 50.9231,49.2452 44.5,49.5 Z"/></g>
<g><path style="opacity:1" fill="#84b4a7" d="M 61.5,54.5 C 63.1992,54.3398 64.8659,54.5065 66.5,55C 65.8333,55.3333 65.1667,55.6667 64.5,56C 66.8473,56.3336 69.1806,56.167 71.5,55.5C 72.8499,56.8235 72.6833,57.8235 71,58.5C 68.721,58.4503 66.3876,58.1169 64,57.5C 63.7216,58.4158 63.2216,59.0825 62.5,59.5C 61.7375,58.7321 60.7375,58.2321 59.5,58C 62.1667,57.3333 62.1667,56.6667 59.5,56C 60.4158,55.7216 61.0825,55.2216 61.5,54.5 Z"/></g>
<g><path style="opacity:1" fill="#ece8e3" d="M 62.5,59.5 C 65.4844,60.3372 68.3177,61.6705 71,63.5C 72.8406,69.4938 70.6739,71.8271 64.5,70.5C 64.1667,70.5 63.8333,70.5 63.5,70.5C 61.064,69.129 58.3973,68.129 55.5,67.5C 53.064,66.129 50.3973,65.129 47.5,64.5C 45.7202,63.0101 45.0535,61.0101 45.5,58.5C 46.5938,57.4183 47.9271,56.7517 49.5,56.5C 53.7362,57.976 58.0696,58.976 62.5,59.5 Z"/></g>
<g><path style="opacity:1" fill="#9cbdb1" d="M 100.5,54.5 C 100.804,55.1499 101.137,55.8165 101.5,56.5C 99.8931,58.8509 97.8931,59.5176 95.5,58.5C 94.3122,59.84 92.8122,60.5066 91,60.5C 88,59.1667 85,59.1667 82,60.5C 80.589,59.9161 79.4223,59.4161 78.5,59C 78,59.5 77.5,60 77,60.5C 76.5182,63.9066 76.5182,67.24 77,70.5C 74.4835,67.4563 73.9835,64.123 75.5,60.5C 74.1779,60.67 73.0113,60.3366 72,59.5C 71.8333,60 71.6667,60.5 71.5,61C 72.7093,65.1627 72.7093,69.3294 71.5,73.5C 67.753,73.6076 64.0863,73.1076 60.5,72C 62.0581,71.79 63.3915,71.29 64.5,70.5C 70.6739,71.8271 72.8406,69.4938 71,63.5C 68.3177,61.6705 65.4844,60.3372 62.5,59.5C 63.2216,59.0825 63.7216,58.4158 64,57.5C 66.3876,58.1169 68.721,58.4503 71,58.5C 72.6833,57.8235 72.8499,56.8235 71.5,55.5C 74.8333,56.1667 78.1667,56.8333 81.5,57.5C 84.3035,58.6378 87.3035,58.8045 90.5,58C 91.056,57.6174 91.3893,57.1174 91.5,56.5C 93.4352,55.8505 95.4352,55.5172 97.5,55.5C 98.609,55.4431 99.609,55.1098 100.5,54.5 Z"/></g>
<g><path style="opacity:1" fill="#bbbca7" d="M 91.5,56.5 C 91.3893,57.1174 91.056,57.6174 90.5,58C 87.3035,58.8045 84.3035,58.6378 81.5,57.5C 84.9023,57.6576 88.2356,57.3242 91.5,56.5 Z"/></g>
<g><path style="opacity:1" fill="#e2c6b0" d="M 138.5,51.5 C 139.895,55.5909 140.562,59.9242 140.5,64.5C 139.525,61.6888 138.858,58.6888 138.5,55.5C 138.5,54.1667 138.5,52.8333 138.5,51.5 Z"/></g>
<g><path style="opacity:1" fill="#b7bdad" d="M 130.5,53.5 C 131.468,55.6074 131.802,57.9407 131.5,60.5C 131.5,64.8333 131.5,69.1667 131.5,73.5C 130.791,74.404 129.791,74.7373 128.5,74.5C 130.348,70.1464 131.015,65.4797 130.5,60.5C 130.5,58.1667 130.5,55.8333 130.5,53.5 Z"/></g>
<g><path style="opacity:1" fill="#dba97f" d="M 138.5,55.5 C 138.858,58.6888 139.525,61.6888 140.5,64.5C 143.305,65.3195 146.305,65.8195 149.5,66C 148.906,66.4643 148.239,66.631 147.5,66.5C 143.77,66.8541 140.437,68.1874 137.5,70.5C 136.833,70.1667 136.167,69.8333 135.5,69.5C 134.641,67.0002 133.641,64.6669 132.5,62.5C 132.5,61.8333 132.5,61.1667 132.5,60.5C 134.346,57.6824 135.846,55.0157 137,52.5C 137.232,53.7375 137.732,54.7375 138.5,55.5 Z"/></g>
<g><path style="opacity:1" fill="#d7b99c" d="M 131.5,60.5 C 131.833,60.5 132.167,60.5 132.5,60.5C 132.5,61.1667 132.5,61.8333 132.5,62.5C 132.5,65.8333 132.5,69.1667 132.5,72.5C 134.167,72.5 135.833,72.5 137.5,72.5C 137.5,72.8333 137.5,73.1667 137.5,73.5C 135.5,73.5 133.5,73.5 131.5,73.5C 131.5,69.1667 131.5,64.8333 131.5,60.5 Z"/></g>
<g><path style="opacity:1" fill="#b2cabe" d="M 47.5,64.5 C 50.3973,65.129 53.064,66.129 55.5,67.5C 52.284,67.6545 49.6174,66.6545 47.5,64.5 Z"/></g>
<g><path style="opacity:1" fill="#dbaf88" d="M 132.5,62.5 C 133.641,64.6669 134.641,67.0002 135.5,69.5C 136.167,69.8333 136.833,70.1667 137.5,70.5C 140.437,68.1874 143.77,66.8541 147.5,66.5C 147.842,67.3382 148.508,67.6716 149.5,67.5C 150.263,68.2679 151.263,68.7679 152.5,69C 151.062,69.2189 149.729,69.7189 148.5,70.5C 151.564,71.8514 154.564,73.3514 157.5,75C 156.944,75.3826 156.611,75.8826 156.5,76.5C 150.746,72.9248 144.412,71.5914 137.5,72.5C 135.833,72.5 134.167,72.5 132.5,72.5C 132.5,69.1667 132.5,65.8333 132.5,62.5 Z"/></g>
<g><path style="opacity:1" fill="#dfba9a" d="M 140.5,64.5 C 144.846,64.3343 149.179,64.501 153.5,65C 155.32,65.2004 156.653,66.0337 157.5,67.5C 154.833,66.1667 152.167,66.1667 149.5,67.5C 148.508,67.6716 147.842,67.3382 147.5,66.5C 148.239,66.631 148.906,66.4643 149.5,66C 146.305,65.8195 143.305,65.3195 140.5,64.5 Z"/></g>
<g><path style="opacity:1" fill="#92bbaf" d="M 45.5,58.5 C 45.0535,61.0101 45.7202,63.0101 47.5,64.5C 49.6174,66.6545 52.284,67.6545 55.5,67.5C 58.3973,68.129 61.064,69.129 63.5,70.5C 57.4967,71.0048 51.83,70.0048 46.5,67.5C 44.8964,66.3974 43.8964,64.8974 43.5,63C 44.4239,61.85 44.4239,60.85 43.5,60C 44.0442,59.2828 44.7109,58.7828 45.5,58.5 Z"/></g>
<g><path style="opacity:1" fill="#dcb695" d="M 157.5,67.5 C 159.754,68.1237 161.421,69.457 162.5,71.5C 161.21,72.0577 160.377,73.0577 160,74.5C 159.5,73.3333 158.667,72.5 157.5,72C 158.413,70.5861 158.413,69.0861 157.5,67.5 Z"/></g>
<g><path style="opacity:1" fill="#8db7ad" d="M 94.5,78.5 C 92.4305,78.5514 90.5971,77.8847 89,76.5C 87.4029,77.8847 85.5695,78.5514 83.5,78.5C 83.8511,76.1305 84.0178,73.7972 84,71.5C 83.6667,71.8333 83.3333,72.1667 83,72.5C 82.5045,70.5273 82.3379,68.5273 82.5,66.5C 84.1667,66.5 85.8333,66.5 87.5,66.5C 87.3505,65.448 87.5172,64.448 88,63.5C 89.0665,65.2826 90.5665,65.7826 92.5,65C 91.0439,64.5774 90.5439,63.7441 91,62.5C 93.3237,63.8073 94.657,65.8073 95,68.5C 95.3333,68.1667 95.6667,67.8333 96,67.5C 96.4828,68.448 96.6495,69.448 96.5,70.5C 94.8762,70.6399 93.7096,69.9733 93,68.5C 90.6514,70.7443 91.1514,71.9109 94.5,72C 93.1667,72.3333 91.8333,72.6667 90.5,73C 91.965,74.7742 93.2983,76.6075 94.5,78.5 Z"/></g>
<g><path style="opacity:1" fill="#e7cfbc" d="M 29.5,63.5 C 29.5,69.5 29.5,75.5 29.5,81.5C 28.791,82.404 27.791,82.7373 26.5,82.5C 28.0821,76.2635 29.0821,69.9302 29.5,63.5 Z"/></g>
<g><path style="opacity:1" fill="#dbac83" d="M 157.5,67.5 C 158.413,69.0861 158.413,70.5861 157.5,72C 158.667,72.5 159.5,73.3333 160,74.5C 160.377,73.0577 161.21,72.0577 162.5,71.5C 162.75,73.674 163.75,75.3406 165.5,76.5C 165.579,77.9305 165.246,79.2638 164.5,80.5C 166.603,83.1377 167.937,86.1377 168.5,89.5C 167.26,92.5545 167.26,95.5545 168.5,98.5C 168.5,99.1667 168.5,99.8333 168.5,100.5C 166.549,100.773 165.049,100.107 164,98.5C 163.692,99.3081 163.192,99.9747 162.5,100.5C 161.833,96.3525 161.166,92.3525 160.5,88.5C 160.552,86.0971 160.219,83.7638 159.5,81.5C 159.573,79.9731 158.906,78.9731 157.5,78.5C 157.672,77.5084 157.338,76.8417 156.5,76.5C 156.611,75.8826 156.944,75.3826 157.5,75C 154.564,73.3514 151.564,71.8514 148.5,70.5C 149.729,69.7189 151.062,69.2189 152.5,69C 151.263,68.7679 150.263,68.2679 149.5,67.5C 152.167,66.1667 154.833,66.1667 157.5,67.5 Z"/></g>
<g><path style="opacity:1" fill="#f0eae4" d="M 131.5,73.5 C 133.5,73.5 135.5,73.5 137.5,73.5C 141.182,73.3347 144.848,73.5014 148.5,74C 151.079,75.467 153.746,76.6336 156.5,77.5C 156.263,78.791 156.596,79.791 157.5,80.5C 158.167,80.8333 158.833,81.1667 159.5,81.5C 160.219,83.7638 160.552,86.0971 160.5,88.5C 160.931,94.0228 160.264,99.3561 158.5,104.5C 156.305,106.424 153.972,108.091 151.5,109.5C 148.171,109.215 145.171,109.882 142.5,111.5C 141.833,111.5 141.167,111.5 140.5,111.5C 130.376,112.045 120.376,113.378 110.5,115.5C 109.167,115.5 107.833,115.5 106.5,115.5C 106.815,111.629 106.482,107.962 105.5,104.5C 105.722,100.158 104.389,96.4909 101.5,93.5C 101.167,93.5 100.833,93.5 100.5,93.5C 96.7104,92.0976 93.0437,92.4309 89.5,94.5C 89.1667,94.5 88.8333,94.5 88.5,94.5C 86.0733,94.523 83.74,95.023 81.5,96C 80.1772,96.8159 79.5106,97.9826 79.5,99.5C 79.0563,105.755 77.3896,111.755 74.5,117.5C 71.0818,119.152 67.4151,119.985 63.5,120C 65.5,120.333 67.5,120.667 69.5,121C 66.9746,121.424 64.9746,122.59 63.5,124.5C 55.6274,126.132 47.9608,128.132 40.5,130.5C 39.6236,130.631 38.9569,130.298 38.5,129.5C 39.2458,128.264 39.5792,126.93 39.5,125.5C 40.3382,125.158 40.6716,124.492 40.5,123.5C 42.2798,122.01 42.9465,120.01 42.5,117.5C 44.1272,111.229 43.4605,105.062 40.5,99C 38.467,97.3008 36.8004,95.3008 35.5,93C 36.4138,91.5936 37.0805,90.0936 37.5,88.5C 39.099,88.7678 40.4324,88.4345 41.5,87.5C 42.1667,87.5 42.8333,87.5 43.5,87.5C 48.8223,86.9707 54.1557,86.4707 59.5,86C 60.7375,85.7679 61.7375,85.2679 62.5,84.5C 65.2372,84.5987 67.9039,84.2653 70.5,83.5C 71.5,83.5 72.5,83.5 73.5,83.5C 79.3856,83.0203 85.0522,82.0203 90.5,80.5C 91.791,80.7373 92.791,80.404 93.5,79.5C 93.8333,79.5 94.1667,79.5 94.5,79.5C 96.5,79.5 98.5,79.5 100.5,79.5C 102.735,79.2053 104.735,79.5386 106.5,80.5C 111.6,79.1063 116.6,77.4396 121.5,75.5C 123.717,74.6314 126.05,74.298 128.5,74.5C 129.791,74.7373 130.791,74.404 131.5,73.5 Z"/></g>
<g><path style="opacity:1" fill="#dcbea5" d="M 162.5,71.5 C 164.25,72.6594 165.25,74.326 165.5,76.5C 163.75,75.3406 162.75,73.674 162.5,71.5 Z"/></g>
<g><path style="opacity:1" fill="#edddcf" d="M 137.5,73.5 C 137.5,73.1667 137.5,72.8333 137.5,72.5C 144.412,71.5914 150.746,72.9248 156.5,76.5C 157.338,76.8417 157.672,77.5084 157.5,78.5C 157.5,79.1667 157.5,79.8333 157.5,80.5C 156.596,79.791 156.263,78.791 156.5,77.5C 153.746,76.6336 151.079,75.467 148.5,74C 144.848,73.5014 141.182,73.3347 137.5,73.5 Z"/></g>
<g><path style="opacity:1" fill="#9abbb0" d="M 38.5,69.5 C 41.1667,73.8333 41.1667,78.1667 38.5,82.5C 38.5,78.1667 38.5,73.8333 38.5,69.5 Z"/></g>
<g><path style="opacity:1" fill="#9fbdb3" d="M 104.5,77.5 C 103.167,78.1667 101.833,78.8333 100.5,79.5C 98.5,79.5 96.5,79.5 94.5,79.5C 94.5,79.1667 94.5,78.8333 94.5,78.5C 97.3128,78.4519 99.9795,77.7853 102.5,76.5C 103.183,76.8627 103.85,77.1961 104.5,77.5 Z"/></g>
<g><path style="opacity:1" fill="#dab492" d="M 37.5,56.5 C 37.5,67.1667 37.5,77.8333 37.5,88.5C 35.283,89.3686 32.9496,89.702 30.5,89.5C 31.9516,88.6981 33.6183,88.1981 35.5,88C 34.6433,87.3109 33.9767,86.4776 33.5,85.5C 34.3306,79.8755 34.9973,74.2088 35.5,68.5C 35.4493,66.9002 35.1159,65.4002 34.5,64C 36.4812,63.3946 36.8146,62.3946 35.5,61C 36.0989,59.3775 36.7656,57.8775 37.5,56.5 Z"/></g>
<g><path style="opacity:1" fill="#e2e4de" d="M 121.5,75.5 C 116.6,77.4396 111.6,79.1063 106.5,80.5C 104.735,79.5386 102.735,79.2053 100.5,79.5C 101.833,78.8333 103.167,78.1667 104.5,77.5C 110.191,77.0203 115.858,76.3536 121.5,75.5 Z"/></g>
<g><path style="opacity:1" fill="#f0ece7" d="M 106.5,80.5 C 106.47,81.4972 106.97,82.1639 108,82.5C 109,81.8333 110,81.1667 111,80.5C 112.333,81.1667 113.667,81.8333 115,82.5C 117.749,79.6043 120.582,79.271 123.5,81.5C 124.833,78.8333 126.167,78.8333 127.5,81.5C 128.287,80.7579 128.953,79.9246 129.5,79C 135.825,78.5005 142.158,78.3338 148.5,78.5C 148.5,79.8333 148.5,81.1667 148.5,82.5C 151.261,81.9147 152.927,82.9147 153.5,85.5C 151.747,87.9793 149.747,90.3126 147.5,92.5C 146.571,93.6888 146.238,95.0222 146.5,96.5C 144.473,96.3379 142.473,96.5045 140.5,97C 139.359,97.7412 139.359,98.5745 140.5,99.5C 138.604,100.466 136.604,100.799 134.5,100.5C 134.33,101.822 134.663,102.989 135.5,104C 134.167,104.667 132.833,104.667 131.5,104C 131.833,103.667 132.167,103.333 132.5,103C 129.854,102.503 127.187,102.336 124.5,102.5C 124.33,101.178 124.663,100.011 125.5,99C 122.756,97.6759 121.423,95.5092 121.5,92.5C 119.549,92.2267 118.049,92.8934 117,94.5C 116.586,94.0426 116.086,93.7093 115.5,93.5C 112.175,97.5956 109.175,97.4289 106.5,93C 107.851,91.3829 109.518,90.2162 111.5,89.5C 109.833,88.5 108.5,87.1667 107.5,85.5C 106.5,85.8333 105.833,86.5 105.5,87.5C 106.59,88.6086 106.59,89.6086 105.5,90.5C 103.174,89.1799 101.174,87.5133 99.5,85.5C 101.007,84.2612 102.174,84.5946 103,86.5C 104.682,85.1354 104.849,83.6354 103.5,82C 104.527,81.4867 105.527,80.9867 106.5,80.5 Z"/></g>
<g><path style="opacity:1" fill="#dcb899" d="M 165.5,76.5 C 166.167,76.5 166.5,76.8333 166.5,77.5C 167.317,80.4786 168.151,83.4786 169,86.5C 169.812,90.6888 169.645,94.6888 168.5,98.5C 167.26,95.5545 167.26,92.5545 168.5,89.5C 167.937,86.1377 166.603,83.1377 164.5,80.5C 165.246,79.2638 165.579,77.9305 165.5,76.5 Z"/></g>
<g><path style="opacity:1" fill="#aebdaf" d="M 37.5,56.5 C 37.8333,56.5 38.1667,56.5 38.5,56.5C 38.5,58.1667 38.5,59.8333 38.5,61.5C 38.5,64.1667 38.5,66.8333 38.5,69.5C 38.5,73.8333 38.5,78.1667 38.5,82.5C 38.5,84.1667 38.5,85.8333 38.5,87.5C 39.5,87.5 40.5,87.5 41.5,87.5C 40.4324,88.4345 39.099,88.7678 37.5,88.5C 37.5,77.8333 37.5,67.1667 37.5,56.5 Z"/></g>
<g><path style="opacity:1" fill="#afc6bd" d="M 90.5,80.5 C 85.0522,82.0203 79.3856,83.0203 73.5,83.5C 78.873,81.5476 84.5397,80.5476 90.5,80.5 Z"/></g>
<g><path style="opacity:1" fill="#e0c4ac" d="M 157.5,78.5 C 158.906,78.9731 159.573,79.9731 159.5,81.5C 158.833,81.1667 158.167,80.8333 157.5,80.5C 157.5,79.8333 157.5,79.1667 157.5,78.5 Z"/></g>
<g><path style="opacity:1" fill="#eadcd0" d="M 166.5,77.5 C 167.496,77.4142 168.329,77.7476 169,78.5C 173.352,86.7711 173.186,94.7711 168.5,102.5C 168.5,101.833 168.5,101.167 168.5,100.5C 168.5,99.8333 168.5,99.1667 168.5,98.5C 169.645,94.6888 169.812,90.6888 169,86.5C 168.151,83.4786 167.317,80.4786 166.5,77.5 Z"/></g>
<g><path style="opacity:1" fill="#93baaf" d="M 93.5,79.5 C 92.791,80.404 91.791,80.7373 90.5,80.5C 84.5397,80.5476 78.873,81.5476 73.5,83.5C 72.5,83.5 71.5,83.5 70.5,83.5C 71.4525,81.39 73.1192,80.2233 75.5,80C 80.0855,79.8029 84.5855,79.3029 89,78.5C 90.3561,79.3802 91.8561,79.7135 93.5,79.5 Z"/></g>
<g><path style="opacity:1" fill="#dba77b" d="M 20.5,94.5 C 19.9965,90.6646 18.9965,90.6646 17.5,94.5C 16.2638,95.2458 14.9305,95.5792 13.5,95.5C 13.4802,93.857 14.1468,92.5237 15.5,91.5C 15.1543,90.3044 14.6543,90.3044 14,91.5C 12.9614,90.7562 12.4614,89.7562 12.5,88.5C 14.1172,87.962 15.7839,87.6287 17.5,87.5C 16.769,90.0314 17.269,90.0314 19,87.5C 20.0495,88.5171 21.2161,88.6838 22.5,88C 23.1552,86.5134 24.1552,85.3467 25.5,84.5C 26.6586,88.122 26.8253,91.7887 26,95.5C 24.3005,94.5939 22.4672,94.2606 20.5,94.5 Z"/></g>
<g><path style="opacity:1" fill="#a6c2b8" d="M 62.5,84.5 C 61.7375,85.2679 60.7375,85.7679 59.5,86C 54.1557,86.4707 48.8223,86.9707 43.5,87.5C 45.3885,86.678 47.3885,85.8447 49.5,85C 50.7423,81.6433 51.5756,81.81 52,85.5C 55.4217,85.7803 58.9217,85.447 62.5,84.5 Z"/></g>
<g><path style="opacity:1" fill="#dcac84" d="M 37.5,56.5 C 36.7656,57.8775 36.0989,59.3775 35.5,61C 36.8146,62.3946 36.4812,63.3946 34.5,64C 35.1159,65.4002 35.4493,66.9002 35.5,68.5C 34.9973,74.2088 34.3306,79.8755 33.5,85.5C 33.9767,86.4776 34.6433,87.3109 35.5,88C 33.6183,88.1981 31.9516,88.6981 30.5,89.5C 30.1667,89.5 29.8333,89.5 29.5,89.5C 28.5655,90.5676 28.2322,91.901 28.5,93.5C 29.552,93.3505 30.552,93.5172 31.5,94C 30.1667,96 30.1667,98 31.5,100C 30.9056,100.464 30.2389,100.631 29.5,100.5C 27.2515,96.2382 23.9182,95.2382 19.5,97.5C 16.9511,96.1687 17.2845,95.1687 20.5,94.5C 22.4672,94.2606 24.3005,94.5939 26,95.5C 26.8253,91.7887 26.6586,88.122 25.5,84.5C 24.1552,85.3467 23.1552,86.5134 22.5,88C 21.2161,88.6838 20.0495,88.5171 19,87.5C 17.269,90.0314 16.769,90.0314 17.5,87.5C 17.5569,86.391 17.8902,85.391 18.5,84.5C 20.8383,82.9605 23.5049,82.2938 26.5,82.5C 27.791,82.7373 28.791,82.404 29.5,81.5C 30.9311,81.8807 31.7645,82.8807 32,84.5C 32.1667,83.5 32.3333,82.5 32.5,81.5C 31.4456,77.1314 31.4456,72.9647 32.5,69C 30.1144,64.3891 29.9477,59.5558 32,54.5C 32.3333,55.1667 32.6667,55.8333 33,56.5C 33.5946,55.1011 33.4279,53.7678 32.5,52.5C 36.0768,51.1406 37.7434,52.4739 37.5,56.5 Z"/></g>
<g><path style="opacity:1" fill="#ddbb9d" d="M 18.5,84.5 C 17.8902,85.391 17.5569,86.391 17.5,87.5C 15.7839,87.6287 14.1172,87.962 12.5,88.5C 13.8021,86.1782 15.8021,84.8449 18.5,84.5 Z"/></g>
<g><path style="opacity:1" fill="#dcb08b" d="M 12.5,88.5 C 12.4614,89.7562 12.9614,90.7562 14,91.5C 14.6543,90.3044 15.1543,90.3044 15.5,91.5C 14.1468,92.5237 13.4802,93.857 13.5,95.5C 14.9305,95.5792 16.2638,95.2458 17.5,94.5C 18.9965,90.6646 19.9965,90.6646 20.5,94.5C 17.2845,95.1687 16.9511,96.1687 19.5,97.5C 19.5,97.8333 19.5,98.1667 19.5,98.5C 19.1667,98.5 18.8333,98.5 18.5,98.5C 16.9731,98.427 15.9731,99.0937 15.5,100.5C 14.9744,102.23 13.9744,103.564 12.5,104.5C 11.5543,102.868 10.5543,101.201 9.5,99.5C 10.325,98.6143 11.325,98.281 12.5,98.5C 12.6882,96.8967 12.1882,95.5634 11,94.5C 10.2208,97.0972 9.72083,97.0972 9.5,94.5C 9.5,93.8333 9.5,93.1667 9.5,92.5C 9.73758,90.5956 10.7376,89.2623 12.5,88.5 Z"/></g>
<g><path style="opacity:1" fill="#e4cab3" d="M 100.5,93.5 C 96.8455,93.9422 93.1788,94.2756 89.5,94.5C 93.0437,92.4309 96.7104,92.0976 100.5,93.5 Z"/></g>
<g><path style="opacity:1" fill="#dba97e" d="M 9.5,94.5 C 9.72083,97.0972 10.2208,97.0972 11,94.5C 12.1882,95.5634 12.6882,96.8967 12.5,98.5C 11.325,98.281 10.325,98.6143 9.5,99.5C 10.5543,101.201 11.5543,102.868 12.5,104.5C 11.6909,106.292 11.1909,108.292 11,110.5C 10.51,109.207 10.3433,107.873 10.5,106.5C 9.16667,106.5 7.83333,106.5 6.5,106.5C 6.27243,102.076 7.27243,98.076 9.5,94.5 Z"/></g>
<g><path style="opacity:1" fill="#deba9c" d="M 9.5,92.5 C 9.5,93.1667 9.5,93.8333 9.5,94.5C 7.27243,98.076 6.27243,102.076 6.5,106.5C 5.69929,108.042 5.36596,109.708 5.5,111.5C 4.41627,106.632 4.58294,101.632 6,96.5C 6.65999,94.6763 7.82665,93.343 9.5,92.5 Z"/></g>
<g><path style="opacity:1" fill="#dfbda0" d="M 29.5,100.5 C 26.3652,98.9767 23.0318,98.31 19.5,98.5C 19.5,98.1667 19.5,97.8333 19.5,97.5C 23.9182,95.2382 27.2515,96.2382 29.5,100.5 Z"/></g>
<g><path style="opacity:1" fill="#e3cab3" d="M 18.5,98.5 C 18.0269,99.9063 17.0269,100.573 15.5,100.5C 15.9731,99.0937 16.9731,98.427 18.5,98.5 Z"/></g>
<g><path style="opacity:1" fill="#eee1d5" d="M 37.5,88.5 C 37.0805,90.0936 36.4138,91.5936 35.5,93C 36.8004,95.3008 38.467,97.3008 40.5,99C 43.4605,105.062 44.1272,111.229 42.5,117.5C 42.81,114.287 42.4767,111.287 41.5,108.5C 41.3822,105.312 40.5489,102.312 39,99.5C 35.3404,96.4665 32.1737,93.1331 29.5,89.5C 29.8333,89.5 30.1667,89.5 30.5,89.5C 32.9496,89.702 35.283,89.3686 37.5,88.5 Z"/></g>
<g><path style="opacity:1" fill="#dca97d" d="M 100.5,93.5 C 100.833,93.5 101.167,93.5 101.5,93.5C 102.817,97.0586 103.817,100.725 104.5,104.5C 104.376,105.107 104.043,105.44 103.5,105.5C 102.737,104.732 101.737,104.232 100.5,104C 101.942,100.872 101.442,98.0384 99,95.5C 98.9962,97.3684 99.4962,99.2017 100.5,101C 100.167,101.5 99.8333,102 99.5,102.5C 98.2624,98.6893 97.5958,98.6893 97.5,102.5C 95.1667,102.5 92.8333,102.5 90.5,102.5C 90.3601,104.124 91.0267,105.29 92.5,106C 91.5562,108.719 91.2229,111.552 91.5,114.5C 88.8333,114.5 86.1667,114.5 83.5,114.5C 80.9178,112.417 80.9178,110.083 83.5,107.5C 83.1543,106.304 82.6543,106.304 82,107.5C 81.5172,106.552 81.3505,105.552 81.5,104.5C 80.7207,101.925 80.8873,99.592 82,97.5C 84.294,96.5783 86.4606,95.5783 88.5,94.5C 88.8333,94.5 89.1667,94.5 89.5,94.5C 93.1788,94.2756 96.8455,93.9422 100.5,93.5 Z"/></g>
<g><path style="opacity:1" fill="#dfb38d" d="M 103.5,105.5 C 102.265,105.721 101.265,106.388 100.5,107.5C 99.5713,106.311 99.238,104.978 99.5,103.5C 98.5,103.5 97.5,103.5 96.5,103.5C 96.5,104.833 96.5,106.167 96.5,107.5C 95.1667,107.5 93.8333,107.5 92.5,107.5C 92.5,110.167 92.5,112.833 92.5,115.5C 89.5,115.5 86.5,115.5 83.5,115.5C 83.5,115.167 83.5,114.833 83.5,114.5C 86.1667,114.5 88.8333,114.5 91.5,114.5C 91.2229,111.552 91.5562,108.719 92.5,106C 91.0267,105.29 90.3601,104.124 90.5,102.5C 92.8333,102.5 95.1667,102.5 97.5,102.5C 97.5958,98.6893 98.2624,98.6893 99.5,102.5C 99.8333,102 100.167,101.5 100.5,101C 99.4962,99.2017 98.9962,97.3684 99,95.5C 101.442,98.0384 101.942,100.872 100.5,104C 101.737,104.232 102.737,104.732 103.5,105.5 Z"/></g>
<g><path style="opacity:1" fill="#dca87b" d="M 103.5,105.5 C 103.868,108.533 103.202,111.2 101.5,113.5C 101.838,116.157 101.171,118.49 99.5,120.5C 101.291,121.17 102.958,121.837 104.5,122.5C 104.158,123.338 103.492,123.672 102.5,123.5C 97.8333,123.5 93.1667,123.5 88.5,123.5C 89.1667,119.5 87.5,117.833 83.5,118.5C 83.5,117.5 83.5,116.5 83.5,115.5C 86.5,115.5 89.5,115.5 92.5,115.5C 92.5,112.833 92.5,110.167 92.5,107.5C 93.8333,107.5 95.1667,107.5 96.5,107.5C 96.5,106.167 96.5,104.833 96.5,103.5C 97.5,103.5 98.5,103.5 99.5,103.5C 99.238,104.978 99.5713,106.311 100.5,107.5C 101.265,106.388 102.265,105.721 103.5,105.5 Z"/></g>
<g><path style="opacity:1" fill="#deba9b" d="M 160.5,88.5 C 161.166,92.3525 161.833,96.3525 162.5,100.5C 163.192,99.9747 163.692,99.3081 164,98.5C 165.049,100.107 166.549,100.773 168.5,100.5C 168.5,101.167 168.5,101.833 168.5,102.5C 168.5,102.833 168.5,103.167 168.5,103.5C 167.079,106.009 165.412,108.343 163.5,110.5C 164.167,108.167 164.833,105.833 165.5,103.5C 164.448,103.649 163.448,103.483 162.5,103C 163.696,102.346 163.696,101.846 162.5,101.5C 161.148,102.524 159.815,103.524 158.5,104.5C 160.264,99.3561 160.931,94.0228 160.5,88.5 Z"/></g>
<g><path style="opacity:1" fill="#ddb695" d="M 158.5,104.5 C 158.141,106.371 157.141,107.871 155.5,109C 156.167,109.667 156.833,110.333 157.5,111C 155.481,110.848 153.481,110.348 151.5,109.5C 153.972,108.091 156.305,106.424 158.5,104.5 Z"/></g>
<g><path style="opacity:1" fill="#dbaa81" d="M 26.5,107.5 C 27.6408,110.64 27.8075,113.973 27,117.5C 26.6174,118.056 26.1174,118.389 25.5,118.5C 24.3754,116.623 24.7088,114.79 26.5,113C 25.5838,112.626 24.7504,112.126 24,111.5C 24.2727,113.951 23.7727,116.451 22.5,119C 22.8333,119.333 23.1667,119.667 23.5,120C 22.3914,120.638 21.2247,121.138 20,121.5C 15.2634,119.336 12.0967,120.669 10.5,125.5C 8.92908,124.691 7.26241,124.357 5.5,124.5C 6.16667,123.5 6.83333,122.5 7.5,121.5C 7.91753,120.778 8.5842,120.278 9.5,120C 8.74756,119.329 8.41423,118.496 8.5,117.5C 8.60378,114.91 7.93711,112.577 6.5,110.5C 6.66667,109.833 6.83333,109.167 7,108.5C 8.18819,109.563 8.68819,110.897 8.5,112.5C 10.1667,112.5 11.8333,112.5 13.5,112.5C 14.1667,112.5 14.5,112.833 14.5,113.5C 15.1522,114.725 16.3189,115.392 18,115.5C 19.1667,115.333 20.3333,115.167 21.5,115C 20.8906,113.052 20.224,111.218 19.5,109.5C 19.5,108.833 19.5,108.167 19.5,107.5C 21.3956,107.907 23.729,107.907 26.5,107.5 Z"/></g>
<g><path style="opacity:1" fill="#f2e6dd" d="M 79.5,99.5 C 79.6354,106.862 79.3021,114.196 78.5,121.5C 75.7718,121.171 73.4385,121.837 71.5,123.5C 68.7938,123.575 66.1272,123.908 63.5,124.5C 64.9746,122.59 66.9746,121.424 69.5,121C 67.5,120.667 65.5,120.333 63.5,120C 67.4151,119.985 71.0818,119.152 74.5,117.5C 77.3896,111.755 79.0563,105.755 79.5,99.5 Z"/></g>
<g><path style="opacity:1" fill="#dcb490" d="M 12.5,104.5 C 12.2786,107.279 12.612,109.946 13.5,112.5C 11.8333,112.5 10.1667,112.5 8.5,112.5C 8.68819,110.897 8.18819,109.563 7,108.5C 6.83333,109.167 6.66667,109.833 6.5,110.5C 7.93711,112.577 8.60378,114.91 8.5,117.5C 6.99249,115.819 5.99249,113.819 5.5,111.5C 5.36596,109.708 5.69929,108.042 6.5,106.5C 7.83333,106.5 9.16667,106.5 10.5,106.5C 10.3433,107.873 10.51,109.207 11,110.5C 11.1909,108.292 11.6909,106.292 12.5,104.5 Z"/></g>
<g><path style="opacity:1" fill="#f0e5db" d="M 18.5,98.5 C 18.8333,98.5 19.1667,98.5 19.5,98.5C 23.0318,98.31 26.3652,98.9767 29.5,100.5C 30.1667,101.5 30.8333,102.5 31.5,103.5C 34.0837,110.745 34.0837,118.079 31.5,125.5C 29.2426,127.923 26.5759,129.757 23.5,131C 20.5624,131.712 17.8957,131.212 15.5,129.5C 14.5448,127.254 13.8782,124.921 13.5,122.5C 16.5184,122.665 19.5184,122.498 22.5,122C 24.4257,121.578 25.4257,120.411 25.5,118.5C 26.1174,118.389 26.6174,118.056 27,117.5C 27.8075,113.973 27.6408,110.64 26.5,107.5C 26.4413,105.278 25.2747,104.278 23,104.5C 20.7253,104.278 19.5587,105.278 19.5,107.5C 19.5,108.167 19.5,108.833 19.5,109.5C 19.5,111.167 19.5,112.833 19.5,114.5C 17.7085,114.634 16.0418,114.301 14.5,113.5C 14.5,112.833 14.1667,112.5 13.5,112.5C 12.612,109.946 12.2786,107.279 12.5,104.5C 13.9744,103.564 14.9744,102.23 15.5,100.5C 17.0269,100.573 18.0269,99.9063 18.5,98.5 Z"/></g>
<g><path style="opacity:1" fill="#debb9d" d="M 26.5,107.5 C 23.729,107.907 21.3956,107.907 19.5,107.5C 19.5587,105.278 20.7253,104.278 23,104.5C 25.2747,104.278 26.4413,105.278 26.5,107.5 Z"/></g>
<g><path style="opacity:1" fill="#ddbc9f" d="M 151.5,109.5 C 151.389,110.117 151.056,110.617 150.5,111C 147.854,111.497 145.187,111.664 142.5,111.5C 145.171,109.882 148.171,109.215 151.5,109.5 Z"/></g>
<g><path style="opacity:1" fill="#e1c5aa" d="M 41.5,108.5 C 42.4767,111.287 42.81,114.287 42.5,117.5C 42.9465,120.01 42.2798,122.01 40.5,123.5C 41.3924,118.562 41.7257,113.562 41.5,108.5 Z"/></g>
<g><path style="opacity:1" fill="#e6d1bd" d="M 105.5,104.5 C 106.482,107.962 106.815,111.629 106.5,115.5C 107.833,115.5 109.167,115.5 110.5,115.5C 109.081,116.451 107.415,116.784 105.5,116.5C 105.5,112.5 105.5,108.5 105.5,104.5 Z"/></g>
<g><path style="opacity:1" fill="#dcb492" d="M 163.5,110.5 C 159.618,115.913 154.284,118.246 147.5,117.5C 148.917,114.597 150.751,112.597 153,111.5C 154.667,112.167 156.333,112.833 158,113.5C 158.483,112.552 158.649,111.552 158.5,110.5C 160.167,110.5 161.833,110.5 163.5,110.5 Z"/></g>
<g><path style="opacity:1" fill="#e0c2a9" d="M 31.5,103.5 C 32.4584,103.953 33.2917,104.619 34,105.5C 34.1728,111.348 34.6728,117.015 35.5,122.5C 34.5637,123.974 33.2303,124.974 31.5,125.5C 34.0837,118.079 34.0837,110.745 31.5,103.5 Z"/></g>
<g><path style="opacity:1" fill="#dbab80" d="M 163.5,110.5 C 161.833,110.5 160.167,110.5 158.5,110.5C 158.649,111.552 158.483,112.552 158,113.5C 156.333,112.833 154.667,112.167 153,111.5C 150.751,112.597 148.917,114.597 147.5,117.5C 147.167,117.5 146.833,117.5 146.5,117.5C 145.388,115.256 143.888,115.256 142,117.5C 141.544,116.256 142.044,115.423 143.5,115C 140.5,114.333 137.5,114.333 134.5,115C 135.833,115.333 137.167,115.667 138.5,116C 136.559,116.743 134.726,116.576 133,115.5C 132.544,116.744 133.044,117.577 134.5,118C 132.563,118.122 131.23,118.955 130.5,120.5C 124.158,120.334 117.825,120.5 111.5,121C 110.234,121.309 109.067,121.809 108,122.5C 107.026,120.122 106.359,120.456 106,123.5C 105.617,122.944 105.117,122.611 104.5,122.5C 102.958,121.837 101.291,121.17 99.5,120.5C 101.171,118.49 101.838,116.157 101.5,113.5C 103.912,113.694 104.912,115.027 104.5,117.5C 109.411,117.967 114.078,117.3 118.5,115.5C 120.541,116.991 122.041,116.658 123,114.5C 124.458,115.747 125.958,115.747 127.5,114.5C 128.281,115.729 128.781,117.062 129,118.5C 129.273,116.899 129.773,115.399 130.5,114C 134.038,113.465 137.372,112.632 140.5,111.5C 141.167,111.5 141.833,111.5 142.5,111.5C 145.187,111.664 147.854,111.497 150.5,111C 151.056,110.617 151.389,110.117 151.5,109.5C 153.481,110.348 155.481,110.848 157.5,111C 156.833,110.333 156.167,109.667 155.5,109C 157.141,107.871 158.141,106.371 158.5,104.5C 159.815,103.524 161.148,102.524 162.5,101.5C 163.696,101.846 163.696,102.346 162.5,103C 163.448,103.483 164.448,103.649 165.5,103.5C 164.833,105.833 164.167,108.167 163.5,110.5 Z"/></g>
<g><path style="opacity:1" fill="#ddb896" d="M 101.5,93.5 C 104.389,96.4909 105.722,100.158 105.5,104.5C 105.5,108.5 105.5,112.5 105.5,116.5C 107.415,116.784 109.081,116.451 110.5,115.5C 120.376,113.378 130.376,112.045 140.5,111.5C 137.372,112.632 134.038,113.465 130.5,114C 129.773,115.399 129.273,116.899 129,118.5C 128.781,117.062 128.281,115.729 127.5,114.5C 125.958,115.747 124.458,115.747 123,114.5C 122.041,116.658 120.541,116.991 118.5,115.5C 114.078,117.3 109.411,117.967 104.5,117.5C 104.912,115.027 103.912,113.694 101.5,113.5C 103.202,111.2 103.868,108.533 103.5,105.5C 104.043,105.44 104.376,105.107 104.5,104.5C 103.817,100.725 102.817,97.0586 101.5,93.5 Z"/></g>
<g><path style="opacity:1" fill="#ddbb9c" d="M 19.5,109.5 C 20.224,111.218 20.8906,113.052 21.5,115C 20.3333,115.167 19.1667,115.333 18,115.5C 16.3189,115.392 15.1522,114.725 14.5,113.5C 16.0418,114.301 17.7085,114.634 19.5,114.5C 19.5,112.833 19.5,111.167 19.5,109.5 Z"/></g>
<g><path style="opacity:1" fill="#debc9f" d="M 88.5,94.5 C 86.4606,95.5783 84.294,96.5783 82,97.5C 80.8873,99.592 80.7207,101.925 81.5,104.5C 80.8089,110.38 79.9755,116.38 79,122.5C 76.6194,123.435 74.1194,123.768 71.5,123.5C 73.4385,121.837 75.7718,121.171 78.5,121.5C 79.3021,114.196 79.6354,106.862 79.5,99.5C 79.5106,97.9826 80.1772,96.8159 81.5,96C 83.74,95.023 86.0733,94.523 88.5,94.5 Z"/></g>
<g><path style="opacity:1" fill="#dcab82" d="M 81.5,104.5 C 81.3505,105.552 81.5172,106.552 82,107.5C 82.6543,106.304 83.1543,106.304 83.5,107.5C 80.9178,110.083 80.9178,112.417 83.5,114.5C 83.5,114.833 83.5,115.167 83.5,115.5C 83.5,116.5 83.5,117.5 83.5,118.5C 87.5,117.833 89.1667,119.5 88.5,123.5C 93.1667,123.5 97.8333,123.5 102.5,123.5C 102.5,124.167 102.5,124.833 102.5,125.5C 99.1501,125.335 95.8168,125.502 92.5,126C 91.2625,126.232 90.2625,126.732 89.5,127.5C 84.2301,127.763 79.2301,128.763 74.5,130.5C 69.9292,130.977 65.5959,131.977 61.5,133.5C 60.1667,133.5 58.8333,133.5 57.5,133.5C 57.0069,131.51 55.8402,131.51 54,133.5C 53.6667,132.833 53.3333,132.167 53,131.5C 51.9152,132.736 51.0819,134.069 50.5,135.5C 48.3977,134.731 46.0643,134.564 43.5,135C 43.1667,134.667 42.8333,134.333 42.5,134C 43.3081,133.692 43.9747,133.192 44.5,132.5C 43.3984,131.824 42.3984,131.158 41.5,130.5C 49.6407,131.631 56.974,129.631 63.5,124.5C 66.1272,123.908 68.7938,123.575 71.5,123.5C 74.1194,123.768 76.6194,123.435 79,122.5C 79.9755,116.38 80.8089,110.38 81.5,104.5 Z"/></g>
<g><path style="opacity:1" fill="#ddb390" d="M 146.5,117.5 C 141.37,118.913 136.037,119.913 130.5,120.5C 131.23,118.955 132.563,118.122 134.5,118C 133.044,117.577 132.544,116.744 133,115.5C 134.726,116.576 136.559,116.743 138.5,116C 137.167,115.667 135.833,115.333 134.5,115C 137.5,114.333 140.5,114.333 143.5,115C 142.044,115.423 141.544,116.256 142,117.5C 143.888,115.256 145.388,115.256 146.5,117.5 Z"/></g>
<g><path style="opacity:1" fill="#dbaf89" d="M 29.5,89.5 C 32.1737,93.1331 35.3404,96.4665 39,99.5C 40.5489,102.312 41.3822,105.312 41.5,108.5C 41.7257,113.562 41.3924,118.562 40.5,123.5C 40.6716,124.492 40.3382,125.158 39.5,125.5C 37.9261,127.102 37.2594,129.102 37.5,131.5C 38.791,131.737 39.791,131.404 40.5,130.5C 40.8333,130.5 41.1667,130.5 41.5,130.5C 42.3984,131.158 43.3984,131.824 44.5,132.5C 43.9747,133.192 43.3081,133.692 42.5,134C 42.8333,134.333 43.1667,134.667 43.5,135C 46.0643,134.564 48.3977,134.731 50.5,135.5C 46.4577,137.237 42.1243,138.237 37.5,138.5C 38.2778,137.844 38.9444,137.011 39.5,136C 37.4627,133.237 35.796,130.237 34.5,127C 35.6872,125.981 36.6872,124.814 37.5,123.5C 37.0431,122.702 36.3764,122.369 35.5,122.5C 34.6728,117.015 34.1728,111.348 34,105.5C 33.2917,104.619 32.4584,103.953 31.5,103.5C 30.8333,102.5 30.1667,101.5 29.5,100.5C 30.2389,100.631 30.9056,100.464 31.5,100C 30.1667,98 30.1667,96 31.5,94C 30.552,93.5172 29.552,93.3505 28.5,93.5C 28.2322,91.901 28.5655,90.5676 29.5,89.5 Z"/></g>
<g><path style="opacity:1" fill="#ddb695" d="M 25.5,118.5 C 25.4257,120.411 24.4257,121.578 22.5,122C 19.5184,122.498 16.5184,122.665 13.5,122.5C 13.8782,124.921 14.5448,127.254 15.5,129.5C 13.1123,127.639 10.4456,126.306 7.5,125.5C 6.50838,125.672 5.84171,125.338 5.5,124.5C 7.26241,124.357 8.92908,124.691 10.5,125.5C 12.0967,120.669 15.2634,119.336 20,121.5C 21.2247,121.138 22.3914,120.638 23.5,120C 23.1667,119.667 22.8333,119.333 22.5,119C 23.7727,116.451 24.2727,113.951 24,111.5C 24.7504,112.126 25.5838,112.626 26.5,113C 24.7088,114.79 24.3754,116.623 25.5,118.5 Z"/></g>
<g><path style="opacity:1" fill="#dcb596" d="M 130.5,120.5 C 121.445,121.839 112.445,123.506 103.5,125.5C 103.737,126.791 103.404,127.791 102.5,128.5C 102.5,127.5 102.5,126.5 102.5,125.5C 102.5,124.833 102.5,124.167 102.5,123.5C 103.492,123.672 104.158,123.338 104.5,122.5C 105.117,122.611 105.617,122.944 106,123.5C 106.359,120.456 107.026,120.122 108,122.5C 109.067,121.809 110.234,121.309 111.5,121C 117.825,120.5 124.158,120.334 130.5,120.5 Z"/></g>
<g><path style="opacity:1" fill="#eadccf" d="M 168.5,103.5 C 168.032,107.444 166.699,111.111 164.5,114.5C 163.726,115.711 162.893,115.711 162,114.5C 160.786,116.049 159.286,117.215 157.5,118C 151.646,119.798 145.646,120.798 139.5,121C 136.44,121.639 133.607,122.805 131,124.5C 125.423,123.454 119.757,124.12 114,126.5C 110.559,125.618 107.059,125.284 103.5,125.5C 112.445,123.506 121.445,121.839 130.5,120.5C 136.037,119.913 141.37,118.913 146.5,117.5C 146.833,117.5 147.167,117.5 147.5,117.5C 154.284,118.246 159.618,115.913 163.5,110.5C 165.412,108.343 167.079,106.009 168.5,103.5 Z"/></g>
<g><path style="opacity:1" fill="#daaa81" d="M 35.5,122.5 C 36.3764,122.369 37.0431,122.702 37.5,123.5C 36.6872,124.814 35.6872,125.981 34.5,127C 35.796,130.237 37.4627,133.237 39.5,136C 38.9444,137.011 38.2778,137.844 37.5,138.5C 30.891,139.423 24.2244,139.756 17.5,139.5C 14.8333,137.833 12.1667,136.167 9.5,134.5C 8.39142,132.446 7.39142,130.279 6.5,128C 6.74325,127.098 7.07658,126.265 7.5,125.5C 10.4456,126.306 13.1123,127.639 15.5,129.5C 16.976,131.5 18.8094,133.167 21,134.5C 24.3539,132.548 27.8539,130.881 31.5,129.5C 32.6256,128.192 32.6256,126.858 31.5,125.5C 33.2303,124.974 34.5637,123.974 35.5,122.5 Z"/></g>
<g><path style="opacity:1" fill="#d7a490" d="M 102.5,125.5 C 102.5,126.5 102.5,127.5 102.5,128.5C 102.5,129.167 102.167,129.5 101.5,129.5C 101.631,128.761 101.464,128.094 101,127.5C 97.3786,127.642 93.5453,127.642 89.5,127.5C 90.2625,126.732 91.2625,126.232 92.5,126C 95.8168,125.502 99.1501,125.335 102.5,125.5 Z"/></g>
<g><path style="opacity:1" fill="#dfbea1" d="M 39.5,125.5 C 39.5792,126.93 39.2458,128.264 38.5,129.5C 38.9569,130.298 39.6236,130.631 40.5,130.5C 39.791,131.404 38.791,131.737 37.5,131.5C 37.2594,129.102 37.9261,127.102 39.5,125.5 Z"/></g>
<g><path style="opacity:1" fill="#dcb898" d="M 63.5,124.5 C 56.974,129.631 49.6407,131.631 41.5,130.5C 41.1667,130.5 40.8333,130.5 40.5,130.5C 47.9608,128.132 55.6274,126.132 63.5,124.5 Z"/></g>
<g><path style="opacity:1" fill="#d39989" d="M 89.5,128.5 C 89.5,128.167 89.5,127.833 89.5,127.5C 93.5453,127.642 97.3786,127.642 101,127.5C 101.464,128.094 101.631,128.761 101.5,129.5C 99.8243,131.834 97.491,132.834 94.5,132.5C 93.2178,130.82 91.5511,129.487 89.5,128.5 Z"/></g>
<g><path style="opacity:1" fill="#d7a793" d="M 89.5,127.5 C 89.5,127.833 89.5,128.167 89.5,128.5C 84.3368,128.519 80.0035,130.186 76.5,133.5C 76.1667,133.5 75.8333,133.5 75.5,133.5C 74.8902,132.609 74.5569,131.609 74.5,130.5C 79.2301,128.763 84.2301,127.763 89.5,127.5 Z"/></g>
<g><path style="opacity:1" fill="#cf8c7c" d="M 89.5,128.5 C 91.5511,129.487 93.2178,130.82 94.5,132.5C 94.1667,132.5 93.8333,132.5 93.5,132.5C 88.1408,133.003 82.8075,133.67 77.5,134.5C 76.8333,134.5 76.5,134.167 76.5,133.5C 80.0035,130.186 84.3368,128.519 89.5,128.5 Z"/></g>
<g><path style="opacity:1" fill="#e5ceba" d="M 7.5,121.5 C 6.83333,122.5 6.16667,123.5 5.5,124.5C 5.84171,125.338 6.50838,125.672 7.5,125.5C 7.07658,126.265 6.74325,127.098 6.5,128C 7.39142,130.279 8.39142,132.446 9.5,134.5C 8.27935,133.972 7.11268,133.305 6,132.5C 5.00325,129.199 4.66992,125.866 5,122.5C 5.67076,121.748 6.5041,121.414 7.5,121.5 Z"/></g>
<g><path style="opacity:1" fill="#ddb591" d="M 57.5,133.5 C 55.4855,134.924 53.1522,135.59 50.5,135.5C 51.0819,134.069 51.9152,132.736 53,131.5C 53.3333,132.167 53.6667,132.833 54,133.5C 55.8402,131.51 57.0069,131.51 57.5,133.5 Z"/></g>
<g><path style="opacity:1" fill="#e8d6c6" d="M 74.5,130.5 C 74.5569,131.609 74.8902,132.609 75.5,133.5C 71.0419,133.808 66.3752,133.808 61.5,133.5C 65.5959,131.977 69.9292,130.977 74.5,130.5 Z"/></g>
<g><path style="opacity:1" fill="#dcb694" d="M 31.5,125.5 C 32.6256,126.858 32.6256,128.192 31.5,129.5C 27.8539,130.881 24.3539,132.548 21,134.5C 18.8094,133.167 16.976,131.5 15.5,129.5C 17.8957,131.212 20.5624,131.712 23.5,131C 26.5759,129.757 29.2426,127.923 31.5,125.5 Z"/></g>
<g><path style="opacity:1" fill="#d4a699" d="M 93.5,132.5 C 88.3077,134.877 82.9744,135.544 77.5,134.5C 82.8075,133.67 88.1408,133.003 93.5,132.5 Z"/></g>
<g><path style="opacity:1" fill="#e8d5c4" d="M 57.5,133.5 C 58.8333,133.5 60.1667,133.5 61.5,133.5C 61.3893,134.117 61.056,134.617 60.5,135C 56.7235,135.592 53.0569,136.592 49.5,138C 49.8333,138.333 50.1667,138.667 50.5,139C 45.1227,138.862 40.1227,140.029 35.5,142.5C 29.2713,142.068 23.2713,141.068 17.5,139.5C 24.2244,139.756 30.891,139.423 37.5,138.5C 42.1243,138.237 46.4577,137.237 50.5,135.5C 53.1522,135.59 55.4855,134.924 57.5,133.5 Z"/></g>
<g><path style="opacity:0.963" fill="#e9dfd5" d="M 53.5,176.5 C 46.8333,176.5 40.1667,176.5 33.5,176.5C 32.5325,173.555 32.3658,170.555 33,167.5C 34.6667,167.833 36.3333,168.167 38,168.5C 38.3333,165.5 38.6667,162.5 39,159.5C 41.3806,160.435 43.8806,160.768 46.5,160.5C 46.5,158.833 46.5,157.167 46.5,155.5C 49.5,156.167 52.5,156.833 55.5,157.5C 56.8292,162.127 57.4959,166.794 57.5,171.5C 56.6086,172.59 55.6086,172.59 54.5,171.5C 53.5481,173.045 53.2148,174.712 53.5,176.5 Z"/></g>
</svg>
